<svg xmlns="http://www.w3.org/2000/svg" viewBox="0 0 100 100" width="100" height="100">
  <defs>
    <linearGradient id="g1" x1="0%" y1="0%" x2="100%" y2="100%">
      <stop offset="0%" stop-color="#FF6B00"/>
      <stop offset="100%" stop-color="#FF8A3D"/>
    </linearGradient>
  </defs>
  <!-- Rounded square background -->
  <rect x="5" y="5" width="90" height="90" rx="22" fill="url(#g1)"/>
  <!-- Fork (left) -->
  <g stroke="white" stroke-width="3.5" stroke-linecap="round" stroke-linejoin="round" fill="none">
    <line x1="30" y1="22" x2="30" y2="42"/>
    <line x1="40" y1="22" x2="40" y2="42"/>
    <line x1="50" y1="22" x2="50" y2="42"/>
    <path d="M30 42 C30 54 40 54 40 54 C40 54 50 54 50 42"/>
    <line x1="40" y1="54" x2="40" y2="80"/>
  </g>
  <!-- Knife (right) -->
  <g stroke="white" stroke-width="3.5" stroke-linecap="round" stroke-linejoin="round" fill="none">
    <path d="M62 22 L62 56 C62 62 68 62 68 56 L68 22"/>
    <line x1="65" y1="62" x2="65" y2="80"/>
  </g>
  <!-- Small accent dot -->
  <circle cx="40" cy="84" r="2" fill="white" opacity="0.6"/>
  <circle cx="65" cy="84" r="2" fill="white" opacity="0.6"/>
</svg>
